<?xml version="1.0" encoding="utf-8"?>
<!-- Generator: Adobe Illustrator 20.1.0, SVG Export Plug-In . SVG Version: 6.00 Build 0)  -->
<svg version="1.1" id="Layer_1" xmlns="http://www.w3.org/2000/svg" xmlns:xlink="http://www.w3.org/1999/xlink" x="0px" y="0px"
	 viewBox="0 0 128 128" style="enable-background:new 0 0 128 128;" xml:space="preserve">
<style type="text/css">
	.st0{fill:#CCCCCC;}
	.st1{fill:#969696;}
</style>
<rect y="0.3" class="st0" width="127.7" height="127.7"/>
<g>
	<path class="st1" d="M26.9,59.2c0,1.1-0.3,2.1-1,2.8c-0.6,0.7-1.5,1.2-2.7,1.5v0.1c1.4,0.2,2.5,0.6,3.2,1.4c0.7,0.7,1,1.7,1,2.9
		c0,1.7-0.6,3-1.8,3.9c-1.2,0.9-2.9,1.4-5,1.4c-0.9,0-1.8-0.1-2.6-0.2c-0.8-0.1-1.5-0.4-2.3-0.8v-1.9c0.8,0.4,1.6,0.7,2.5,0.9
		c0.9,0.2,1.7,0.3,2.5,0.3c3.1,0,4.6-1.2,4.6-3.6c0-2.2-1.7-3.2-5.1-3.2h-1.8v-1.7h1.8c1.4,0,2.5-0.3,3.3-0.9
		c0.8-0.6,1.2-1.5,1.2-2.6c0-0.9-0.3-1.6-0.9-2.1c-0.6-0.5-1.4-0.7-2.4-0.7c-0.8,0-1.5,0.1-2.2,0.3c-0.7,0.2-1.5,0.6-2.4,1.2l-1-1.4
		c0.7-0.6,1.6-1,2.5-1.4c1-0.3,2-0.5,3-0.5c1.7,0,3.1,0.4,4,1.2C26.4,56.7,26.9,57.8,26.9,59.2z"/>
	<path class="st1" d="M42,63.9c0,3.1-0.5,5.4-1.5,6.9c-1,1.5-2.5,2.3-4.5,2.3c-1.9,0-3.4-0.8-4.4-2.3c-1-1.6-1.5-3.8-1.5-6.9
		c0-3.1,0.5-5.4,1.5-6.9c1-1.5,2.4-2.3,4.4-2.3c1.9,0,3.4,0.8,4.4,2.4C41.5,58.6,42,60.9,42,63.9z M32.2,63.9c0,2.6,0.3,4.5,0.9,5.7
		c0.6,1.2,1.6,1.8,2.9,1.8c1.4,0,2.3-0.6,2.9-1.8c0.6-1.2,0.9-3.1,0.9-5.6c0-2.6-0.3-4.4-0.9-5.6c-0.6-1.2-1.6-1.8-2.9-1.8
		c-1.3,0-2.3,0.6-2.9,1.8C32.5,59.4,32.2,61.3,32.2,63.9z"/>
	<path class="st1" d="M56.3,63.9c0,3.1-0.5,5.4-1.5,6.9c-1,1.5-2.5,2.3-4.5,2.3c-1.9,0-3.4-0.8-4.4-2.3c-1-1.6-1.5-3.8-1.5-6.9
		c0-3.1,0.5-5.4,1.5-6.9c1-1.5,2.4-2.3,4.4-2.3c1.9,0,3.4,0.8,4.4,2.4C55.8,58.6,56.3,60.9,56.3,63.9z M46.5,63.9
		c0,2.6,0.3,4.5,0.9,5.7c0.6,1.2,1.6,1.8,2.9,1.8c1.4,0,2.3-0.6,2.9-1.8c0.6-1.2,0.9-3.1,0.9-5.6c0-2.6-0.3-4.4-0.9-5.6
		c-0.6-1.2-1.6-1.8-2.9-1.8c-1.3,0-2.3,0.6-2.9,1.8C46.8,59.4,46.5,61.3,46.5,63.9z"/>
	<path class="st1" d="M82.8,59.2c0,1.1-0.3,2.1-1,2.8c-0.6,0.7-1.5,1.2-2.7,1.5v0.1c1.4,0.2,2.5,0.6,3.2,1.4s1,1.7,1,2.9
		c0,1.7-0.6,3-1.8,3.9c-1.2,0.9-2.9,1.4-5,1.4c-0.9,0-1.8-0.1-2.6-0.2c-0.8-0.1-1.5-0.4-2.3-0.8v-1.9c0.8,0.4,1.6,0.7,2.5,0.9
		c0.9,0.2,1.7,0.3,2.5,0.3c3.1,0,4.6-1.2,4.6-3.6c0-2.2-1.7-3.2-5.1-3.2h-1.8v-1.7h1.8c1.4,0,2.5-0.3,3.3-0.9
		c0.8-0.6,1.2-1.5,1.2-2.6c0-0.9-0.3-1.6-0.9-2.1c-0.6-0.5-1.4-0.7-2.4-0.7c-0.8,0-1.5,0.1-2.2,0.3c-0.7,0.2-1.5,0.6-2.4,1.2l-1-1.4
		c0.7-0.6,1.6-1,2.5-1.4c1-0.3,2-0.5,3-0.5c1.7,0,3.1,0.4,4,1.2C82.3,56.7,82.8,57.8,82.8,59.2z"/>
	<path class="st1" d="M97.8,63.9c0,3.1-0.5,5.4-1.5,6.9c-1,1.5-2.5,2.3-4.5,2.3c-1.9,0-3.4-0.8-4.4-2.3c-1-1.6-1.5-3.8-1.5-6.9
		c0-3.1,0.5-5.4,1.5-6.9c1-1.5,2.4-2.3,4.4-2.3c1.9,0,3.4,0.8,4.4,2.4C97.3,58.6,97.8,60.9,97.8,63.9z M88.1,63.9
		c0,2.6,0.3,4.5,0.9,5.7c0.6,1.2,1.6,1.8,2.9,1.8c1.4,0,2.3-0.6,2.9-1.8s0.9-3.1,0.9-5.6c0-2.6-0.3-4.4-0.9-5.6
		c-0.6-1.2-1.6-1.8-2.9-1.8c-1.3,0-2.3,0.6-2.9,1.8C88.4,59.4,88.1,61.3,88.1,63.9z"/>
	<path class="st1" d="M112.1,63.9c0,3.1-0.5,5.4-1.5,6.9c-1,1.5-2.5,2.3-4.5,2.3c-1.9,0-3.4-0.8-4.4-2.3c-1-1.6-1.5-3.8-1.5-6.9
		c0-3.1,0.5-5.4,1.5-6.9c1-1.5,2.4-2.3,4.4-2.3c1.9,0,3.4,0.8,4.4,2.4C111.6,58.6,112.1,60.9,112.1,63.9z M102.4,63.9
		c0,2.6,0.3,4.5,0.9,5.7c0.6,1.2,1.6,1.8,2.9,1.8c1.4,0,2.3-0.6,2.9-1.8s0.9-3.1,0.9-5.6c0-2.6-0.3-4.4-0.9-5.6
		c-0.6-1.2-1.6-1.8-2.9-1.8c-1.3,0-2.3,0.6-2.9,1.8C102.7,59.4,102.4,61.3,102.4,63.9z"/>
</g>
<g transform="translate(0.000000,291.000000) scale(0.100000,-0.100000)">
	<path id="node1" class="st1" d="M656.1,2298l-13.3-13.3l-13,13c-7.2,7.2-13.3,13-13.5,13c-0.3,0-3.7-3.1-7.5-7l-7-7l13-13
		c7.2-7.2,13-13.2,13-13.5c0-0.2-5.9-6.4-13.1-13.6l-13.1-13.1l7.2-7.3l7.2-7.3l13.2,13.2c7.3,7.2,13.4,13.1,13.7,13.1
		c0.3,0,6.4-5.9,13.5-13l13-13l7,7c3.9,3.8,7,7.2,7,7.4c0,0.2-5.9,6.3-13,13.5l-13.1,13.1l13.3,13.3l13.3,13.3l-7.3,7.3l-7.2,7.2
		L656.1,2298z"/>
</g>
</svg>
